{"title":"Scenic Route 2013 WEBRip.flv","uid":8731680,"size":508214612,"categoryP":"video","categoryS":"movies","magnet":"?xt=urn:btih:f4fc615b633434b73de4e622cef26633738fb962&amp;dn=Scenic+Route+2013+WEBRip.flv&amp;tr=udp%3A%2F%2Ftracker.openbittorrent.com%3A80&amp;tr=udp%3A%2F%2Fopen.demonii.com%3A1337&amp;tr=udp%3A%2F%2Ftracker.coppersurfer.tk%3A6969&amp;tr=udp%3A%2F%2Fexodus.desync.com%3A6969","seeders":1,"leechers":0,"uploader":"globeplus","files":-1,"time":1374617056,"description":"Scenic Route 2013 WEBRip.flv\n\n\nSummary\n\nMitchell (Josh Duhamel) and Carter (Dan Fogler), life-long friends, become stranded in the desert while on a road trip. They argue about life decisions until a physical confrontation leads to a very real struggle for life or death.\n\n\nGeneral INFO :\n\nFormat                                   : Flash Video\nFile size                                : 485 MiB\nDuration                                 : 1h 26mn\nOverall bit rate                         : 785 Kbps\nWriting application                      : Encoded By\nTagging application                      : Yet Another Metadata Injector for FLV - Version 1.9\n\nVideo\n\nFormat                                   : AVC\nFormat/Info                              : Advanced Video Codec\nFormat profile                           : &lt;a class=&quot;__cf_email__&quot; href=&quot;/cdn-cgi/l/email-protection&quot; data-cfemail=&quot;9bd3f2fcf3dbd7a8b5ab&quot;&gt;[email&amp;#160;protected]&lt;/a&gt;&lt;script cf-hash='f9e31' type=&quot;text/javascript&quot;&gt;\n/* &lt;![CDATA[ */!function(){try{var t=&quot;currentScript&quot;in document?document.currentScript:function(){for(var t=document.getElementsByTagName(&quot;script&quot;),e=t.length;e--;)if(t[e].getAttribute(&quot;cf-hash&quot;))return t[e]}();if(t&amp;&amp;t.previousSibling){var e,r,n,i,c=t.previousSibling,a=c.getAttribute(&quot;data-cfemail&quot;);if(a){for(e=&quot;&quot;,r=parseInt(a.substr(0,2),16),n=2;a.length-n;n+=2)i=parseInt(a.substr(n,2),16)^r,e+=String.fromCharCode(i);e=document.createTextNode(e),c.parentNode.replaceChild(e,c)}}}catch(u){}}();/* ]]&gt; */&lt;/script&gt;\nFormat settings, CABAC                   : Yes\nFormat settings, ReFrames                : 4 frames\nCodec ID                                 : 7\nDuration                                 : 1h 26mn\nBit rate                                 : 665 Kbps\nNominal bit rate                         : 700 Kbps\nWidth                                    : 640 pixels\nHeight                                   : 352 pixels\nDisplay aspect ratio                     : 16:9\nFrame rate mode                          : Constant\nFrame rate                               : 23.976 fps\nColor space                              : YUV\nChroma subsampling                       : 4:2:0\nBit depth                                : 8 bits\nScan type                                : Progressive\nBits/(Pixel*Frame)                       : 0.123\nStream size                              : 421 MiB (87%)\nWriting library                          : x264 core 125 r2200 999b753\n\n\nAudio\n\nFormat                                   : AAC\nFormat/Info                              : Advanced Audio Codec\nFormat profile                           : LC\nCodec ID                                 : 10\nDuration                                 : 1h 26mn\nBit rate                                 : 94.4 Kbps\nChannel(s)                               : 2 channels\nChannel positions                        : Front: L R\nSampling rate                            : 44.1 KHz\nCompression mode                         : Lossy\nDelay relative to video                  : 19ms\nStream size                              : 62.0 MiB (13%)\n\n\n\n\n* enjoy ...","torrent":{"xt":"urn:btih:f4fc615b633434b73de4e622cef26633738fb962","amp;dn":"Scenic+Route+2013+WEBRip.flv","amp;tr":["udp%3A%2F%2Ftracker.openbittorrent.com%3A80","udp%3A%2F%2Fopen.demonii.com%3A1337","udp%3A%2F%2Ftracker.coppersurfer.tk%3A6969","udp%3A%2F%2Fexodus.desync.com%3A6969"],"infoHash":"f4fc615b633434b73de4e622cef26633738fb962","infoHashBuffer":{"type":"Buffer","data":[244,252,97,91,99,52,52,183,61,228,230,34,206,242,102,51,115,143,185,98]},"announce":[],"urlList":[]}}